<svg id="Слой_1" data-name="Слой 1" xmlns="http://www.w3.org/2000/svg" viewBox="0 0 30 30"><defs><style>.cls-1{fill:#fff;}</style></defs><circle class="cls-1" cx="15" cy="15" r="15"/><g id="surface1"><path d="M13.12.08A14.85,14.85,0,0,0,6.73,2.45,15,15,0,0,0,.62,10.63a17.07,17.07,0,0,0-.56,2.74,22.17,22.17,0,0,0,0,3.26A15.06,15.06,0,0,0,10.63,29.38a18.49,18.49,0,0,0,2.74.56,25.33,25.33,0,0,0,3.26,0A15.07,15.07,0,0,0,29.38,19.37,14.43,14.43,0,0,0,30,15a14.64,14.64,0,0,0-1.94-7.41A15,15,0,0,0,16.81.08,22.73,22.73,0,0,0,13.12.08Zm3.52,1a11.49,11.49,0,0,1,2.54.57A40.17,40.17,0,0,1,14.9,3.37c-.06,0-1-.4-2.14-.84l-2-.81.43-.13a13.42,13.42,0,0,1,2.13-.45A20,20,0,0,1,16.64,1.13ZM11.89,3.34l2,1,1,2.7V9.75l-2.74,1.82L9.89,13.4l-2.7-.9c-1.48-.49-2.71-.91-2.72-.93s-.26-1-.54-2.19L3.41,7.2l.28-.37A14.74,14.74,0,0,1,7.23,3.41a15.28,15.28,0,0,1,2-1.11Zm9.89-.73a14.11,14.11,0,0,1,4.91,4.22L27,7.2l-.52,2.18c-.28,1.19-.52,2.18-.54,2.19s-1.23.44-2.72.93l-2.7.9-2.28-1.83-2.3-1.82V4.35l2.6-1,2.6-1A6.24,6.24,0,0,1,21.78,2.61ZM3.05,10.27c.19.83.35,1.53.35,1.55S1.33,14.4,1.13,14.59s-.09,0,0-.53a13.1,13.1,0,0,1,.47-2.75A10.53,10.53,0,0,1,2.3,9.24c.23-.54.31-.67.35-.59S2.85,9.43,3.05,10.27Zm24.82-.68A14.28,14.28,0,0,1,28.92,14c0,.58,0,.63-.05.56s-2.27-2.71-2.27-2.76.62-2.7.71-3.08l.06-.23.13.23C27.56,8.89,27.73,9.26,27.87,9.59ZM17.18,12.2l2.14,1.72a11.19,11.19,0,0,1-.58,2.69l-.65,2.61H11.9l-.64-2.61c-.37-1.44-.64-2.64-.61-2.67C11,13.61,15,10.5,15,10.52S16,11.29,17.18,12.2ZM6.88,13.51c1.42.47,2.6.88,2.63.9s1.4,5.4,1.36,5.49-2.63,3.53-2.69,3.52S7,23.22,5.73,23l-2.4-.37-.24-.39A14.52,14.52,0,0,1,1.14,16.7l0-.38,1.52-1.83c.83-1,1.55-1.83,1.6-1.84S5.47,13,6.88,13.51Zm20.49,1,1.52,1.84,0,.38a15.28,15.28,0,0,1-.8,3.22,15.45,15.45,0,0,1-1.16,2.34l-.24.39L24.27,23l-2.45.38c-.07,0-2.72-3.46-2.72-3.55s1.29-5.22,1.34-5.35a14.14,14.14,0,0,1,2.65-1c1.43-.48,2.64-.87,2.67-.87S26.52,13.48,27.37,14.48ZM19.51,22c.73,1,1.32,1.77,1.33,1.8s-.56,1.08-1.26,2.3c-1.13,2-1.29,2.22-1.45,2.27s-.49.11-.87.18a19.7,19.7,0,0,1-4.41,0c-.35-.07-.67-.13-.7-.15s-3-4.55-3-4.63.58-.85,1.29-1.8l1.3-1.73h6.42ZM6.31,24.19l1.87.31s2.26,3.52,2.31,3.63,0,.08-.34,0a14.59,14.59,0,0,1-5.59-3.84c-.3-.34-.33-.41-.22-.38Zm19.14,0a14.49,14.49,0,0,1-4.23,3.25,6.51,6.51,0,0,1-1.39.59s.46-.82,1-1.76,1-1.76,1-1.79,2.78-.51,3.88-.67C25.77,23.85,25.64,24,25.45,24.23Z"/></g></svg>